<mxfile host="app.diagrams.net" modified="2024-04-18T03:26:22.148Z" agent="Mozilla/5.0 (Windows NT 10.0; Win64; x64) AppleWebKit/537.36 (KHTML, like Gecko) Chrome/123.0.0.0 Safari/537.36" version="24.2.5" etag="RG7YJXzGcOTC-z7Wlh6H" type="github">
  <diagram name="Page-1" id="imdJvs6RIuHh0WSy3c06">
    <mxGraphModel>
      <root>
        <mxCell id="0" />
        <mxCell id="1" parent="0" />
      </root>
    </mxGraphModel>
  </diagram>
</mxfile>
